<mxfile host="app.diagrams.net" modified="2023-12-01T08:51:31.501Z" agent="Mozilla/5.0 (Macintosh; Intel Mac OS X 10_15_7) AppleWebKit/537.36 (KHTML, like Gecko) Chrome/119.0.0.0 Safari/537.36" version="22.1.5" etag="AHOs21g8Z83B-BA5hGqc" type="github">
  <diagram name="Trang-1" id="lsy7neAXJex2PEShkBKT">
    <mxGraphModel>
      <root>
        <mxCell id="0" />
        <mxCell id="1" parent="0" />
      </root>
    </mxGraphModel>
  </diagram>
</mxfile>
